<svg xmlns="http://www.w3.org/2000/svg" xmlns:xlink="http://www.w3.org/1999/xlink" contentStyleType="text/css" data-diagram-type="CLASS" height="1122px" preserveAspectRatio="none" style="width:1294px;height:1122px;background:#FFFFFF;" version="1.1" viewBox="0 0 1294 1122" width="1294px" zoomAndPan="magnify"><defs/><g><!--class Species--><g class="entity" data-entity="Species" data-source-line="2" data-uid="ent0002" id="entity_Species"><rect fill="#F1F1F1" height="80.5938" rx="2.5" ry="2.5" style="stroke:#181818;stroke-width:0.5;" width="223.0459" x="7" y="104.78"/><ellipse cx="87.3325" cy="120.78" fill="#EB937F" rx="11" ry="11" style="stroke:#181818;stroke-width:1;"/><path d="M91.4419,126.78 L83.7231,126.78 L83.7231,114.3894 L91.4419,114.3894 L91.4419,116.5456 L86.1763,116.5456 L86.1763,119.2175 L90.9419,119.2175 L90.9419,121.3737 L86.1763,121.3737 L86.1763,124.6237 L91.4419,124.6237 L91.4419,126.78 Z " fill="#000000"/><text fill="#000000" font-family="sans-serif" font-size="14" lengthAdjust="spacing" textLength="53.8809" x="107.8325" y="125.6267">Species</text><line style="stroke:#181818;stroke-width:0.5;" x1="8" x2="229.0459" y1="136.78" y2="136.78"/><text fill="#000000" font-family="sans-serif" font-size="14" lengthAdjust="spacing" textLength="211.0459" x="13" y="153.7751">Canine, Feline, Avian, Rodent,</text><text fill="#000000" font-family="sans-serif" font-size="14" lengthAdjust="spacing" textLength="201.168" x="13" y="170.072">Reptile, Anfibian, Fish, Other</text><line style="stroke:#181818;stroke-width:0.5;" x1="8" x2="229.0459" y1="177.3737" y2="177.3737"/></g><!--class VeterinaryHospital--><g class="entity" data-entity="VeterinaryHospital" data-source-line="8" data-uid="ent0003" id="entity_VeterinaryHospital"><rect fill="#F1F1F1" height="276.1563" rx="2.5" ry="2.5" style="stroke:#181818;stroke-width:0.5;" width="882.5088" x="265.27" y="7"/><ellipse cx="636.998" cy="23" fill="#ADD1B2" rx="11" ry="11" style="stroke:#181818;stroke-width:1;"/><path d="M639.9668,28.6406 Q639.3887,28.9375 638.748,29.0781 Q638.1074,29.2344 637.4043,29.2344 Q634.9043,29.2344 633.5762,27.5938 Q632.2637,25.9375 632.2637,22.8125 Q632.2637,19.6875 633.5762,18.0313 Q634.9043,16.375 637.4043,16.375 Q638.1074,16.375 638.748,16.5313 Q639.4043,16.6875 639.9668,16.9844 L639.9668,19.7031 Q639.3418,19.125 638.748,18.8594 Q638.1543,18.5781 637.5293,18.5781 Q636.1855,18.5781 635.498,19.6563 Q634.8105,20.7188 634.8105,22.8125 Q634.8105,24.9063 635.498,25.9844 Q636.1855,27.0469 637.5293,27.0469 Q638.1543,27.0469 638.748,26.7813 Q639.3418,26.5 639.9668,25.9219 L639.9668,28.6406 Z " fill="#000000"/><text fill="#000000" font-family="sans-serif" font-size="14" lengthAdjust="spacing" textLength="130.5527" x="657.498" y="27.8467">VeterinaryHospital</text><line style="stroke:#181818;stroke-width:0.5;" x1="266.27" x2="1146.7788" y1="39" y2="39"/><rect fill="none" height="6" style="stroke:#C82930;stroke-width:1;" width="6" x="273.27" y="49.6484"/><text fill="#000000" font-family="sans-serif" font-size="14" lengthAdjust="spacing" textLength="156.208" x="285.27" y="55.9951">doctors: List&lt;Doctor&gt;</text><rect fill="none" height="6" style="stroke:#C82930;stroke-width:1;" width="6" x="273.27" y="65.9453"/><text fill="#000000" font-family="sans-serif" font-size="14" lengthAdjust="spacing" textLength="163.5908" x="285.27" y="72.292">patients: List&lt;Patient&gt;</text><rect fill="none" height="6" style="stroke:#C82930;stroke-width:1;" width="6" x="273.27" y="82.2422"/><text fill="#000000" font-family="sans-serif" font-size="14" lengthAdjust="spacing" textLength="210.6221" x="285.27" y="88.5889">schedule: List&lt;Appointment&gt;</text><rect fill="none" height="6" style="stroke:#C82930;stroke-width:1;" width="6" x="273.27" y="98.5391"/><text fill="#000000" font-family="sans-serif" font-size="14" lengthAdjust="spacing" textLength="362.5371" x="285.27" y="104.8857">DEFAULT_APPOINTMENT_DURATION_MINUTES: long</text><line style="stroke:#181818;stroke-width:0.5;" x1="266.27" x2="1146.7788" y1="112.1875" y2="112.1875"/><ellipse cx="276.27" cy="125.8359" fill="#84BE84" rx="3" ry="3" style="stroke:#038048;stroke-width:1;"/><text fill="#000000" font-family="sans-serif" font-size="14" lengthAdjust="spacing" textLength="141.4766" x="285.27" y="129.1826">VeterinaryHospital()</text><ellipse cx="276.27" cy="142.1328" fill="#84BE84" rx="3" ry="3" style="stroke:#038048;stroke-width:1;"/><text fill="#000000" font-family="sans-serif" font-size="14" lengthAdjust="spacing" textLength="192.0146" x="285.27" y="145.4795">getDoctors(): List&lt;Doctor&gt;</text><ellipse cx="276.27" cy="158.4297" fill="#84BE84" rx="3" ry="3" style="stroke:#038048;stroke-width:1;"/><text fill="#000000" font-family="sans-serif" font-size="14" lengthAdjust="spacing" textLength="223.9043" x="285.27" y="161.7764">addDoctor(doctor: Doctor): void</text><ellipse cx="276.27" cy="174.7266" fill="#84BE84" rx="3" ry="3" style="stroke:#038048;stroke-width:1;"/><text fill="#000000" font-family="sans-serif" font-size="14" lengthAdjust="spacing" textLength="251.0225" x="285.27" y="178.0732">removeDoctor(doctor: Doctor): void</text><ellipse cx="276.27" cy="191.0234" fill="#84BE84" rx="3" ry="3" style="stroke:#038048;stroke-width:1;"/><text fill="#000000" font-family="sans-serif" font-size="14" lengthAdjust="spacing" textLength="197.0596" x="285.27" y="194.3701">getPatients(): List&lt;Patient&gt;</text><ellipse cx="276.27" cy="207.3203" fill="#84BE84" rx="3" ry="3" style="stroke:#038048;stroke-width:1;"/><text fill="#000000" font-family="sans-serif" font-size="14" lengthAdjust="spacing" textLength="233.8096" x="285.27" y="210.667">addPatient(patient: Patient): void</text><ellipse cx="276.27" cy="223.6172" fill="#84BE84" rx="3" ry="3" style="stroke:#038048;stroke-width:1;"/><text fill="#000000" font-family="sans-serif" font-size="14" lengthAdjust="spacing" textLength="260.9277" x="285.27" y="226.9639">removePatient(patient: Patient): void</text><ellipse cx="276.27" cy="239.9141" fill="#84BE84" rx="3" ry="3" style="stroke:#038048;stroke-width:1;"/><text fill="#000000" font-family="sans-serif" font-size="14" lengthAdjust="spacing" textLength="246.1279" x="285.27" y="243.2607">getSchedule(): List&lt;Appointment&gt;</text><ellipse cx="276.27" cy="256.2109" fill="#84BE84" rx="3" ry="3" style="stroke:#038048;stroke-width:1;"/><text fill="#000000" font-family="sans-serif" font-size="14" lengthAdjust="spacing" textLength="672.6904" x="285.27" y="259.5576">scheduleAppointment(patient: Patient, doctor: Doctor, startTime: LocalDateTime): Appointment</text><ellipse cx="276.27" cy="272.5078" fill="#84BE84" rx="3" ry="3" style="stroke:#038048;stroke-width:1;"/><text fill="#000000" font-family="sans-serif" font-size="14" lengthAdjust="spacing" textLength="856.5088" x="285.27" y="275.8545">scheduleAppointment(patient: Patient, doctor: Doctor, startTime: LocalDateTime, endTime: LocalDateTime): Appointment</text></g><!--class Patient--><g class="entity" data-entity="Patient" data-source-line="26" data-uid="ent0004" id="entity_Patient"><rect fill="#F1F1F1" height="276.1563" rx="2.5" ry="2.5" style="stroke:#181818;stroke-width:0.5;" width="495.5195" x="319.76" y="583.53"/><ellipse cx="538.5818" cy="599.53" fill="#ADD1B2" rx="11" ry="11" style="stroke:#181818;stroke-width:1;"/><path d="M541.5505,605.1706 Q540.9724,605.4675 540.3318,605.6081 Q539.6912,605.7644 538.988,605.7644 Q536.488,605.7644 535.1599,604.1238 Q533.8474,602.4675 533.8474,599.3425 Q533.8474,596.2175 535.1599,594.5613 Q536.488,592.905 538.988,592.905 Q539.6912,592.905 540.3318,593.0613 Q540.988,593.2175 541.5505,593.5144 L541.5505,596.2331 Q540.9255,595.655 540.3318,595.3894 Q539.738,595.1081 539.113,595.1081 Q537.7693,595.1081 537.0818,596.1863 Q536.3943,597.2488 536.3943,599.3425 Q536.3943,601.4363 537.0818,602.5144 Q537.7693,603.5769 539.113,603.5769 Q539.738,603.5769 540.3318,603.3113 Q540.9255,603.03 541.5505,602.4519 L541.5505,605.1706 Z " fill="#000000"/><text fill="#000000" font-family="sans-serif" font-size="14" lengthAdjust="spacing" textLength="49.376" x="559.0818" y="604.3767">Patient</text><line style="stroke:#181818;stroke-width:0.5;" x1="320.76" x2="814.2795" y1="615.53" y2="615.53"/><rect fill="none" height="6" style="stroke:#C82930;stroke-width:1;" width="6" x="327.76" y="626.1784"/><text fill="#000000" font-family="sans-serif" font-size="14" lengthAdjust="spacing" textLength="90.6514" x="339.76" y="632.5251">name: String</text><rect fill="none" height="6" style="stroke:#C82930;stroke-width:1;" width="6" x="327.76" y="642.4753"/><text fill="#000000" font-family="sans-serif" font-size="14" lengthAdjust="spacing" textLength="66.5205" x="339.76" y="648.822">age: byte</text><rect fill="none" height="6" style="stroke:#C82930;stroke-width:1;" width="6" x="327.76" y="658.7722"/><text fill="#000000" font-family="sans-serif" font-size="14" lengthAdjust="spacing" textLength="80.5752" x="339.76" y="665.1189">tutor: Tutor</text><rect fill="none" height="6" style="stroke:#C82930;stroke-width:1;" width="6" x="327.76" y="675.0691"/><text fill="#000000" font-family="sans-serif" font-size="14" lengthAdjust="spacing" textLength="115.3359" x="339.76" y="681.4157">species: Species</text><rect fill="none" height="6" style="stroke:#C82930;stroke-width:1;" width="6" x="327.76" y="691.3659"/><text fill="#000000" font-family="sans-serif" font-size="14" lengthAdjust="spacing" textLength="52.1582" x="339.76" y="697.7126">id: long</text><rect fill="none" height="6" style="stroke:#C82930;stroke-width:1;" width="6" x="327.76" y="707.6628"/><text fill="#000000" font-family="sans-serif" font-size="14" lengthAdjust="spacing" textLength="134.0322" x="339.76" y="714.0095">microchip: boolean</text><rect fill="none" height="6" style="stroke:#C82930;stroke-width:1;" width="6" x="327.76" y="723.9597"/><text fill="#000000" font-family="sans-serif" font-size="14" lengthAdjust="spacing" textLength="133.5879" x="339.76" y="730.3064">insurance: boolean</text><rect fill="none" height="6" style="stroke:#C82930;stroke-width:1;" width="6" x="327.76" y="740.2566"/><text fill="#000000" font-family="sans-serif" font-size="14" lengthAdjust="spacing" textLength="252.8818" x="339.76" y="746.6032">medicalHistory: List&lt;Appointment&gt;</text><rect fill="none" height="6" style="stroke:#C82930;stroke-width:1;" width="6" x="327.76" y="756.5534"/><text fill="#000000" font-family="sans-serif" font-size="14" lengthAdjust="spacing" textLength="89.332" x="339.76" y="762.9001">sex: boolean</text><rect fill="none" height="6" style="stroke:#C82930;stroke-width:1;" width="6" x="327.76" y="772.8503"/><text fill="#000000" font-family="sans-serif" font-size="14" lengthAdjust="spacing" textLength="87.8213" x="339.76" y="779.197">weight: float</text><rect fill="none" height="6" style="stroke:#C82930;stroke-width:1;" width="6" x="327.76" y="789.1472"/><text fill="#000000" font-family="sans-serif" font-size="14" lengthAdjust="spacing" textLength="91.7041" x="339.76" y="795.4939">breed: String</text><line style="stroke:#181818;stroke-width:0.5;" x1="320.76" x2="814.2795" y1="802.7956" y2="802.7956"/><ellipse cx="330.76" cy="816.4441" fill="#84BE84" rx="3" ry="3" style="stroke:#038048;stroke-width:1;"/><text fill="#000000" font-family="sans-serif" font-size="14" lengthAdjust="spacing" textLength="285.2363" x="339.76" y="819.7907">getMedicalHistory(): List&lt;Appointment&gt;</text><ellipse cx="330.76" cy="832.7409" fill="#84BE84" rx="3" ry="3" style="stroke:#038048;stroke-width:1;"/><text fill="#000000" font-family="sans-serif" font-size="14" lengthAdjust="spacing" textLength="423.5068" x="339.76" y="836.0876">addAppointmentToHistory(appointment: Appointment): void</text><ellipse cx="330.76" cy="849.0378" fill="#84BE84" rx="3" ry="3" style="stroke:#038048;stroke-width:1;"/><text fill="#000000" font-family="sans-serif" font-size="14" lengthAdjust="spacing" textLength="469.5195" x="339.76" y="852.3845">removeAppointmentFromHistory(appointment: Appointment): void</text></g><!--class Tutor--><g class="entity" data-entity="Tutor" data-source-line="45" data-uid="ent0005" id="entity_Tutor"><rect fill="#F1F1F1" height="178.375" rx="2.5" ry="2.5" style="stroke:#181818;stroke-width:0.5;" width="260.0967" x="340.47" y="936.68"/><ellipse cx="447.6507" cy="952.68" fill="#ADD1B2" rx="11" ry="11" style="stroke:#181818;stroke-width:1;"/><path d="M450.6194,958.3206 Q450.0413,958.6175 449.4007,958.7581 Q448.76,958.9144 448.0569,958.9144 Q445.5569,958.9144 444.2288,957.2738 Q442.9163,955.6175 442.9163,952.4925 Q442.9163,949.3675 444.2288,947.7113 Q445.5569,946.055 448.0569,946.055 Q448.76,946.055 449.4007,946.2113 Q450.0569,946.3675 450.6194,946.6644 L450.6194,949.3831 Q449.9944,948.805 449.4007,948.5394 Q448.8069,948.2581 448.1819,948.2581 Q446.8382,948.2581 446.1507,949.3363 Q445.4632,950.3988 445.4632,952.4925 Q445.4632,954.5863 446.1507,955.6644 Q446.8382,956.7269 448.1819,956.7269 Q448.8069,956.7269 449.4007,956.4613 Q449.9944,956.18 450.6194,955.6019 L450.6194,958.3206 Z " fill="#000000"/><text fill="#000000" font-family="sans-serif" font-size="14" lengthAdjust="spacing" textLength="37.2354" x="468.1507" y="957.5267">Tutor</text><line style="stroke:#181818;stroke-width:0.5;" x1="341.47" x2="599.5667" y1="968.68" y2="968.68"/><rect fill="none" height="6" style="stroke:#C82930;stroke-width:1;" width="6" x="348.47" y="979.3284"/><text fill="#000000" font-family="sans-serif" font-size="14" lengthAdjust="spacing" textLength="90.6514" x="360.47" y="985.6751">name: String</text><rect fill="none" height="6" style="stroke:#C82930;stroke-width:1;" width="6" x="348.47" y="995.6253"/><text fill="#000000" font-family="sans-serif" font-size="14" lengthAdjust="spacing" textLength="52.1582" x="360.47" y="1001.972">id: long</text><rect fill="none" height="6" style="stroke:#C82930;stroke-width:1;" width="6" x="348.47" y="1011.9222"/><text fill="#000000" font-family="sans-serif" font-size="14" lengthAdjust="spacing" textLength="136.7598" x="360.47" y="1018.2689">pets: List&lt;Patient&gt;</text><rect fill="none" height="6" style="stroke:#C82930;stroke-width:1;" width="6" x="348.47" y="1028.2191"/><text fill="#000000" font-family="sans-serif" font-size="14" lengthAdjust="spacing" textLength="89.5576" x="360.47" y="1034.5657">email: String</text><rect fill="none" height="6" style="stroke:#C82930;stroke-width:1;" width="6" x="348.47" y="1044.5159"/><text fill="#000000" font-family="sans-serif" font-size="14" lengthAdjust="spacing" textLength="83.1934" x="360.47" y="1050.8626">phone: long</text><line style="stroke:#181818;stroke-width:0.5;" x1="341.47" x2="599.5667" y1="1058.1644" y2="1058.1644"/><ellipse cx="351.47" cy="1071.8128" fill="#84BE84" rx="3" ry="3" style="stroke:#038048;stroke-width:1;"/><text fill="#000000" font-family="sans-serif" font-size="14" lengthAdjust="spacing" textLength="170.2285" x="360.47" y="1075.1595">getPets(): List&lt;Patient&gt;</text><ellipse cx="351.47" cy="1088.1097" fill="#84BE84" rx="3" ry="3" style="stroke:#038048;stroke-width:1;"/><text fill="#000000" font-family="sans-serif" font-size="14" lengthAdjust="spacing" textLength="206.9785" x="360.47" y="1091.4564">addPet(patient: Patient): void</text><ellipse cx="351.47" cy="1104.4066" fill="#84BE84" rx="3" ry="3" style="stroke:#038048;stroke-width:1;"/><text fill="#000000" font-family="sans-serif" font-size="14" lengthAdjust="spacing" textLength="234.0967" x="360.47" y="1107.7532">removePet(patient: Patient): void</text></g><!--class Doctor--><g class="entity" data-entity="Doctor" data-source-line="58" data-uid="ent0006" id="entity_Doctor"><rect fill="#F1F1F1" height="96.8906" rx="2.5" ry="2.5" style="stroke:#181818;stroke-width:0.5;" width="172.4326" x="1115.31" y="673.16"/><ellipse cx="1173.8496" cy="689.16" fill="#ADD1B2" rx="11" ry="11" style="stroke:#181818;stroke-width:1;"/><path d="M1176.8183,694.8006 Q1176.2402,695.0975 1175.5996,695.2381 Q1174.9589,695.3944 1174.2558,695.3944 Q1171.7558,695.3944 1170.4277,693.7538 Q1169.1152,692.0975 1169.1152,688.9725 Q1169.1152,685.8475 1170.4277,684.1913 Q1171.7558,682.535 1174.2558,682.535 Q1174.9589,682.535 1175.5996,682.6913 Q1176.2558,682.8475 1176.8183,683.1444 L1176.8183,685.8631 Q1176.1933,685.285 1175.5996,685.0194 Q1175.0058,684.7381 1174.3808,684.7381 Q1173.0371,684.7381 1172.3496,685.8163 Q1171.6621,686.8788 1171.6621,688.9725 Q1171.6621,691.0663 1172.3496,692.1444 Q1173.0371,693.2069 1174.3808,693.2069 Q1175.0058,693.2069 1175.5996,692.9413 Q1176.1933,692.66 1176.8183,692.0819 L1176.8183,694.8006 Z " fill="#000000"/><text fill="#000000" font-family="sans-serif" font-size="14" lengthAdjust="spacing" textLength="46.8535" x="1194.3496" y="694.0067">Doctor</text><line style="stroke:#181818;stroke-width:0.5;" x1="1116.31" x2="1286.7426" y1="705.16" y2="705.16"/><rect fill="none" height="6" style="stroke:#C82930;stroke-width:1;" width="6" x="1123.31" y="715.8084"/><text fill="#000000" font-family="sans-serif" font-size="14" lengthAdjust="spacing" textLength="90.6514" x="1135.31" y="722.1551">name: String</text><rect fill="none" height="6" style="stroke:#C82930;stroke-width:1;" width="6" x="1123.31" y="732.1053"/><text fill="#000000" font-family="sans-serif" font-size="14" lengthAdjust="spacing" textLength="146.4326" x="1135.31" y="738.452">specialization: String</text><rect fill="none" height="6" style="stroke:#C82930;stroke-width:1;" width="6" x="1123.31" y="748.4022"/><text fill="#000000" font-family="sans-serif" font-size="14" lengthAdjust="spacing" textLength="52.1582" x="1135.31" y="754.7489">id: long</text><line style="stroke:#181818;stroke-width:0.5;" x1="1116.31" x2="1286.7426" y1="762.0506" y2="762.0506"/></g><!--class Appointment--><g class="entity" data-entity="Appointment" data-source-line="66" data-uid="ent0007" id="entity_Appointment"><rect fill="#F1F1F1" height="178.375" rx="2.5" ry="2.5" style="stroke:#181818;stroke-width:0.5;" width="912.4912" x="250.28" y="344.15"/><ellipse cx="656.885" cy="360.15" fill="#ADD1B2" rx="11" ry="11" style="stroke:#181818;stroke-width:1;"/><path d="M659.8537,365.7906 Q659.2756,366.0875 658.635,366.2281 Q657.9944,366.3844 657.2912,366.3844 Q654.7912,366.3844 653.4631,364.7438 Q652.1506,363.0875 652.1506,359.9625 Q652.1506,356.8375 653.4631,355.1813 Q654.7912,353.525 657.2912,353.525 Q657.9944,353.525 658.635,353.6813 Q659.2912,353.8375 659.8537,354.1344 L659.8537,356.8531 Q659.2287,356.275 658.635,356.0094 Q658.0412,355.7281 657.4162,355.7281 Q656.0725,355.7281 655.385,356.8063 Q654.6975,357.8688 654.6975,359.9625 Q654.6975,362.0563 655.385,363.1344 Q656.0725,364.1969 657.4162,364.1969 Q658.0412,364.1969 658.635,363.9313 Q659.2287,363.65 659.8537,363.0719 L659.8537,365.7906 Z " fill="#000000"/><text fill="#000000" font-family="sans-serif" font-size="14" lengthAdjust="spacing" textLength="90.7813" x="677.385" y="364.9967">Appointment</text><line style="stroke:#181818;stroke-width:0.5;" x1="251.28" x2="1161.7712" y1="376.15" y2="376.15"/><rect fill="none" height="6" style="stroke:#C82930;stroke-width:1;" width="6" x="258.28" y="386.7984"/><text fill="#000000" font-family="sans-serif" font-size="14" lengthAdjust="spacing" textLength="108.3633" x="270.28" y="393.1451">patient: Patient</text><rect fill="none" height="6" style="stroke:#C82930;stroke-width:1;" width="6" x="258.28" y="403.0953"/><text fill="#000000" font-family="sans-serif" font-size="14" lengthAdjust="spacing" textLength="100.9805" x="270.28" y="409.442">doctor: Doctor</text><rect fill="none" height="6" style="stroke:#C82930;stroke-width:1;" width="6" x="258.28" y="419.3922"/><text fill="#000000" font-family="sans-serif" font-size="14" lengthAdjust="spacing" textLength="181.1523" x="270.28" y="425.7389">startTime: LocalDateTime</text><rect fill="none" height="6" style="stroke:#C82930;stroke-width:1;" width="6" x="258.28" y="435.6891"/><text fill="#000000" font-family="sans-serif" font-size="14" lengthAdjust="spacing" textLength="174.918" x="270.28" y="442.0357">endTime: LocalDateTime</text><rect fill="none" height="6" style="stroke:#C82930;stroke-width:1;" width="6" x="258.28" y="451.9859"/><text fill="#000000" font-family="sans-serif" font-size="14" lengthAdjust="spacing" textLength="80.5752" x="270.28" y="458.3326">tutor: Tutor</text><rect fill="none" height="6" style="stroke:#C82930;stroke-width:1;" width="6" x="258.28" y="468.2828"/><text fill="#000000" font-family="sans-serif" font-size="14" lengthAdjust="spacing" textLength="94.2949" x="270.28" y="474.6295">billing: Billing</text><rect fill="none" height="6" style="stroke:#C82930;stroke-width:1;" width="6" x="258.28" y="484.5797"/><text fill="#000000" font-family="sans-serif" font-size="14" lengthAdjust="spacing" textLength="94.0146" x="270.28" y="490.9264">report: String</text><line style="stroke:#181818;stroke-width:0.5;" x1="251.28" x2="1161.7712" y1="498.2281" y2="498.2281"/><ellipse cx="261.28" cy="511.8766" fill="#84BE84" rx="3" ry="3" style="stroke:#038048;stroke-width:1;"/><text fill="#000000" font-family="sans-serif" font-size="14" lengthAdjust="spacing" textLength="886.4912" x="270.28" y="515.2232">Appointment(patient: Patient, doctor: Doctor, startTime: LocalDateTime, endTime: LocalDateTime, tutor: Tutor, billing: Billing)</text></g><!--class Billing--><g class="entity" data-entity="Billing" data-source-line="79" data-uid="ent0008" id="entity_Billing"><rect fill="#F1F1F1" height="96.8906" rx="2.5" ry="2.5" style="stroke:#181818;stroke-width:0.5;" width="215.7314" x="850.66" y="673.16"/><ellipse cx="932.8143" cy="689.16" fill="#ADD1B2" rx="11" ry="11" style="stroke:#181818;stroke-width:1;"/><path d="M935.783,694.8006 Q935.2049,695.0975 934.5643,695.2381 Q933.9237,695.3944 933.2205,695.3944 Q930.7205,695.3944 929.3924,693.7538 Q928.0799,692.0975 928.0799,688.9725 Q928.0799,685.8475 929.3924,684.1913 Q930.7205,682.535 933.2205,682.535 Q933.9237,682.535 934.5643,682.6913 Q935.2205,682.8475 935.783,683.1444 L935.783,685.8631 Q935.158,685.285 934.5643,685.0194 Q933.9705,684.7381 933.3455,684.7381 Q932.0018,684.7381 931.3143,685.8163 Q930.6268,686.8788 930.6268,688.9725 Q930.6268,691.0663 931.3143,692.1444 Q932.0018,693.2069 933.3455,693.2069 Q933.9705,693.2069 934.5643,692.9413 Q935.158,692.66 935.783,692.0819 L935.783,694.8006 Z " fill="#000000"/><text fill="#000000" font-family="sans-serif" font-size="14" lengthAdjust="spacing" textLength="42.9229" x="953.3143" y="694.0067">Billing</text><line style="stroke:#181818;stroke-width:0.5;" x1="851.66" x2="1065.3914" y1="705.16" y2="705.16"/><rect fill="none" height="6" style="stroke:#C82930;stroke-width:1;" width="6" x="858.66" y="715.8084"/><text fill="#000000" font-family="sans-serif" font-size="14" lengthAdjust="spacing" textLength="110.8994" x="870.66" y="722.1551">amount: double</text><rect fill="none" height="6" style="stroke:#C82930;stroke-width:1;" width="6" x="858.66" y="732.1053"/><text fill="#000000" font-family="sans-serif" font-size="14" lengthAdjust="spacing" textLength="95.3818" x="870.66" y="738.452">paid: boolean</text><rect fill="none" height="6" style="stroke:#C82930;stroke-width:1;" width="6" x="858.66" y="748.4022"/><text fill="#000000" font-family="sans-serif" font-size="14" lengthAdjust="spacing" textLength="189.7314" x="870.66" y="754.7489">appointment: Appointment</text><line style="stroke:#181818;stroke-width:0.5;" x1="851.66" x2="1065.3914" y1="762.0506" y2="762.0506"/></g><!--reverse link VeterinaryHospital to Doctor--><g class="link" data-entity-1="VeterinaryHospital" data-entity-2="Doctor" data-source-line="88" data-uid="lnk9" id="link_VeterinaryHospital_Doctor"><path codeLine="88" d="M1133.3112,291.3131 C1154.5612,309.1031 1164.5,321.49 1180.52,344.15 C1250.52,443.17 1230.21,596.01 1213.64,672.93" fill="none" id="VeterinaryHospital-backto-Doctor" style="stroke:#181818;stroke-width:1;"/><polygon fill="none" points="1124.11,283.61,1126.1429,290.5286,1133.3112,291.3131,1131.2783,284.3945,1124.11,283.61" style="stroke:#181818;stroke-width:1;"/><text fill="#000000" font-family="sans-serif" font-size="13" lengthAdjust="spacing" textLength="8.271" x="1137.4425" y="303.2101">1</text><text fill="#000000" font-family="sans-serif" font-size="13" lengthAdjust="spacing" textLength="23.0356" x="1190.7288" y="662.1066">0..*</text></g><!--reverse link VeterinaryHospital to Patient--><g class="link" data-entity-1="VeterinaryHospital" data-entity-2="Patient" data-source-line="89" data-uid="lnk10" id="link_VeterinaryHospital_Patient"><path codeLine="89" d="M277.3953,291.3448 C256.9053,309.1648 247.66,321.42 232.52,344.15 C188.58,410.14 193.24,453.67 232.52,522.53 C253.61,559.5 284.61,590.27 319.37,615.66" fill="none" id="VeterinaryHospital-backto-Patient" style="stroke:#181818;stroke-width:1;"/><polygon fill="none" points="286.45,283.47,279.2977,284.3892,277.3953,291.3448,284.5476,290.4256,286.45,283.47" style="stroke:#181818;stroke-width:1;"/><text fill="#000000" font-family="sans-serif" font-size="13" lengthAdjust="spacing" textLength="8.271" x="256.5907" y="303.0629">1</text><text fill="#000000" font-family="sans-serif" font-size="13" lengthAdjust="spacing" textLength="23.0356" x="288.6622" y="609.3609">0..*</text></g><!--reverse link VeterinaryHospital to Appointment--><g class="link" data-entity-1="VeterinaryHospital" data-entity-2="Appointment" data-source-line="90" data-uid="lnk11" id="link_VeterinaryHospital_Appointment"><path codeLine="90" d="M706.52,295.34 C706.52,315.86 706.52,324.54 706.52,343.69" fill="none" id="VeterinaryHospital-backto-Appointment" style="stroke:#181818;stroke-width:1;"/><polygon fill="none" points="706.52,283.34,702.52,289.34,706.52,295.34,710.52,289.34,706.52,283.34" style="stroke:#181818;stroke-width:1;"/><text fill="#000000" font-family="sans-serif" font-size="13" lengthAdjust="spacing" textLength="8.271" x="698.3084" y="303.3819">1</text><text fill="#000000" font-family="sans-serif" font-size="13" lengthAdjust="spacing" textLength="23.0356" x="682.6046" y="333.0207">0..*</text></g><!--link Appointment to Billing--><g class="link" data-entity-1="Appointment" data-entity-2="Billing" data-source-line="93" data-uid="lnk12" id="link_Appointment_Billing"><path codeLine="93" d="M784.53,522.96 C828.04,572.38 880.53,632.01 916.4,672.75" fill="none" id="Appointment-Billing" style="stroke:#181818;stroke-width:1;"/><text fill="#000000" font-family="sans-serif" font-size="13" lengthAdjust="spacing" textLength="8.271" x="782.2063" y="542.4679">1</text><text fill="#000000" font-family="sans-serif" font-size="13" lengthAdjust="spacing" textLength="8.271" x="902.2201" y="662.2531">1</text></g><!--link Appointment to Patient--><g class="link" data-entity-1="Appointment" data-entity-2="Patient" data-source-line="94" data-uid="lnk13" id="link_Appointment_Patient"><path codeLine="94" d="M663.49,522.96 C654.21,542.09 646.802,557.3432 636.842,577.8432" fill="none" id="Appointment-to-Patient" style="stroke:#181818;stroke-width:1;"/><polygon fill="#181818" points="634.22,583.24,641.7509,576.8929,636.405,578.7427,634.5552,573.3968,634.22,583.24" style="stroke:#181818;stroke-width:1;"/><text fill="#000000" font-family="sans-serif" font-size="13" lengthAdjust="spacing" textLength="8.271" x="629.6563" y="572.3334">1</text></g><!--link Appointment to Doctor--><g class="link" data-entity-1="Appointment" data-entity-2="Doctor" data-source-line="95" data-uid="lnk14" id="link_Appointment_Doctor"><path codeLine="95" d="M977.5,522.93 C1014.65,540.33 1051.12,560.47 1083.52,583.53 C1117.55,607.74 1144.5046,638.9642 1165.9746,668.0242" fill="none" id="Appointment-to-Doctor" style="stroke:#181818;stroke-width:1;"/><polygon fill="#181818" points="1169.54,672.85,1167.4091,663.2344,1166.5689,668.8285,1160.9748,667.9882,1169.54,672.85" style="stroke:#181818;stroke-width:1;"/><text fill="#000000" font-family="sans-serif" font-size="13" lengthAdjust="spacing" textLength="8.271" x="1156.4985" y="662.0153">1</text></g><!--link Appointment to Tutor--><g class="link" data-entity-1="Appointment" data-entity-2="Tutor" data-source-line="96" data-uid="lnk15" id="link_Appointment_Tutor"><path codeLine="96" d="M363.27,522.95 C339.89,539.76 319.09,559.76 302.52,583.53 C232.36,684.23 255.08,746.49 302.52,859.68 C314.38,887.98 329.5711,909.5261 350.9811,931.9961" fill="none" id="Appointment-to-Tutor" style="stroke:#181818;stroke-width:1;"/><polygon fill="#181818" points="355.12,936.34,351.8075,927.0649,351.6709,932.7201,346.0157,932.5835,355.12,936.34" style="stroke:#181818;stroke-width:1;"/><text fill="#000000" font-family="sans-serif" font-size="13" lengthAdjust="spacing" textLength="8.271" x="337.6162" y="925.6803">1</text></g><!--link Patient to Tutor--><g class="link" data-entity-1="Patient" data-entity-2="Tutor" data-source-line="98" data-uid="lnk16" id="link_Patient_Tutor"><path codeLine="98" d="M558.01,859.89 C554.89,875.92 550.82,891.83 545.52,906.68 C541.98,916.64 537.47,926.63 532.43,936.35" fill="none" id="Patient-Tutor" style="stroke:#181818;stroke-width:1;"/><text fill="#000000" font-family="sans-serif" font-size="13" lengthAdjust="spacing" textLength="8.271" x="549.2786" y="879.933">1</text><text fill="#000000" font-family="sans-serif" font-size="13" lengthAdjust="spacing" textLength="8.271" x="529.0556" y="925.6911">1</text></g><!--link Tutor to Patient--><g class="link" data-entity-1="Tutor" data-entity-2="Patient" data-source-line="99" data-uid="lnk17" id="link_Tutor_Patient"><path codeLine="99" d="M457.64,936.29 C457.69,920.56 459.29,904.49 463.52,889.68 C466.39,879.67 470.04,869.66 474.27,859.81" fill="none" id="Tutor-Patient" style="stroke:#181818;stroke-width:1;"/><polygon fill="#000000" points="469.5824,893.3606,464.7887,901.5747,470.5323,902.8236,469.5824,893.3606" style="stroke:#000000;stroke-width:1;"/><text fill="#000000" font-family="sans-serif" font-size="13" lengthAdjust="spacing" textLength="59.8584" x="477.52" y="902.7469">manages</text><text fill="#000000" font-family="sans-serif" font-size="13" lengthAdjust="spacing" textLength="8.271" x="448.3058" y="925.6263">1</text><text fill="#000000" font-family="sans-serif" font-size="13" lengthAdjust="spacing" textLength="23.0356" x="445.5425" y="879.8486">0..*</text></g><!--SRC=[jLPBR-Cs4BxhLmnoSTB8GdirYW3k9i46o0k9qcj0IsE9BKKA99tKNVI_TqYANggMrq4NUvB8USzy_CWPNCbD1skbWKdUCG6cnugZoK5ZnxWqi95LosI3TP6XqtqE2l0b0_X4HX9pk4RXlyitpcGEJwf6QNDIUCBUSk4aSirNNdZDJPl3WsrHP_zasGpA5g4YVKtHAy6C0Tio2nsJh46tG6YLwRbbOcR0M6QHagr1zQYPvKgQ8WjslwD5pINJsy-3WSzo3hMghD9c0RVSs5yl_Uh2IthoGB6Zw34iWynKBTORWODisVUAIzljv9TNrykNs_9r-VZuS7DVtbtTbw-NBq_BykRX_lNkvlwbl7fUW52o8VNpYUnEpxoWGHjICgTdUocU0wlhi3mDPImWB4dtJV7Qwz2mr1iULQD8GuLVGoKb-rZ3-dJep0A6ZVrm7z6aYCz36tSH_zF8yrsZ4y6Uqnp6PUKE2TgMl7FpKHKJbmGCjwGmYQCV4207bFNnm1xSW_C0x1oaUeTtRbjWj8DCeWPIHxrc5VfJw57FPGCTrfnyGqiTKteR8Hxz1LnBvf9ujWIhnc_GYLd0QclHh-p6rrEwJq1qEBkBU8Zz9gzt89r3nokjgfRtv4OfbsBGaMQZcQnml3qa-JdaUEYS6FnhRFQEl6cfyskXcFKxAurO9vLuuDoDl1-63u4ssIjLD61VDqUJsKTo8hpMglkuWnaKHG7AaPdBc2PfF3UP-AyHUDSBZhKVBzNvnktMMGtavsOJqI6ORb1i4yg5ku456GXA2jJQyI7NqAFTqLxmSG0He-awgoccSrGlHcPzgoGcvEMO0x_56lWXnlYcrdStCnpSsCsaYpTsvbfOCyj0hVx0oiRU3IO7ckVF2nFyRt_F7EfhoFj_PPo0QhZx74Di34syrnJRu9XYXknteq_jlwGNsgwzoVqNcIsKTe3S0Xuc-MsQKrPSqENVBE2tyECtDVPAsz61_h7ScuyIo_UoEjkVqx7P39OJSBhbya-oiWhea4324d4iqJICX7LguugjrMObS9YImq_AYOUuvllmDP_FwGqcmZE9MDsudU7DDV5Quk6v5LzZh6aqDemQMcGJsYU_d82Y02S_5yLF9n5SnnKZCezhfdsWh3yfgfV-NOawhQh8qeFWd3WVz8cOJCNp-OMNnJIcP4CjKwA0_2nUn4cm80bi7BT75SDYzwgzoFu5]--></g></svg>